ffmpeg started on 2016-12-06 at 18:02:43
Report written to "Output/x264/results/ffmpeg/sintelmedium3500k.log"
Command line:
Tools/ffmpeg/ffmpeg -benchmark -y -i Input/y4m/sintel.y4m -c:v libx264 -preset medium -b:v 3500k -an Output/x264/encoded/sintelmedium3500k.mkv
ffmpeg version N-82227-gdb23fde Copyright (c) 2000-2016 the FFmpeg developers
  built with gcc 5.4.0 (Ubuntu 5.4.0-6ubuntu1~16.04.2) 20160609
  configuration: --prefix=/home/jaroslav/ffmpeg_build --pkg-config-flags=--static --extra-cflags=-I/home/jaroslav/ffmpeg_build/include --extra-ldflags=-L/home/jaroslav/ffmpeg_build/lib --bindir=/home/jaroslav/bin --enable-gpl --enable-libass --enable-libfdk-aac --enable-libfreetype --enable-libmp3lame --enable-libopus --enable-libtheora --enable-libvorbis --enable-libvpx --enable-libx264 --enable-libx265 --enable-nvenc --enable-libmfx --enable-libxvid --enable-libgsm --enable-libopencore-amrnb --enable-version3 --enable-nonfree
  libavutil      55. 35.100 / 55. 35.100
  libavcodec     57. 66.101 / 57. 66.101
  libavformat    57. 57.100 / 57. 57.100
  libavdevice    57.  2.100 / 57.  2.100
  libavfilter     6. 66.100 /  6. 66.100
  libswscale      4.  3.100 /  4.  3.100
  libswresample   2.  4.100 /  2.  4.100
  libpostproc    54.  2.100 / 54.  2.100
Input #0, yuv4mpegpipe, from 'Input/y4m/sintel.y4m':
  Duration: 00:00:20.83, start: 0.000000, bitrate: 2057307 kb/s
    Stream #0:0: Video: rawvideo (I420 / 0x30323449), yuv420p(progressive), 4096x1744, SAR 1:1 DAR 256:109, 24 fps, 24 tbr, 24 tbn, 24 tbc
[libx264 @ 0x412d1c0] using SAR=1/1
[libx264 @ 0x412d1c0] using cpu capabilities: MMX2 SSE2Fast SSSE3 SSE4.2 AVX FMA3 AVX2 LZCNT BMI2
[libx264 @ 0x412d1c0] profile High, level 5.1
[libx264 @ 0x412d1c0] 264 - core 148 - H.264/MPEG-4 AVC codec - Copyleft 2003-2016 - http://www.videolan.org/x264.html - options: cabac=1 ref=3 deblock=1:0:0 analyse=0x3:0x113 me=hex subme=7 psy=1 psy_rd=1.00:0.00 mixed_ref=1 me_range=16 chroma_me=1 trellis=1 8x8dct=1 cqm=0 deadzone=21,11 fast_pskip=1 chroma_qp_offset=-2 threads=6 lookahead_threads=1 sliced_threads=0 nr=0 decimate=1 interlaced=0 bluray_compat=0 constrained_intra=0 bframes=3 b_pyramid=2 b_adapt=1 b_bias=0 direct=1 weightb=1 open_gop=0 weightp=2 keyint=250 keyint_min=24 scenecut=40 intra_refresh=0 rc_lookahead=40 rc=abr mbtree=1 bitrate=3500 ratetol=1.0 qcomp=0.60 qpmin=0 qpmax=69 qpstep=4 ip_ratio=1.40 aq=1:1.00
Output #0, matroska, to 'Output/x264/encoded/sintelmedium3500k.mkv':
  Metadata:
    encoder         : Lavf57.57.100
    Stream #0:0: Video: h264 (libx264) (H264 / 0x34363248), yuv420p, 4096x1744 [SAR 1:1 DAR 256:109], q=-1--1, 3500 kb/s, 24 fps, 1k tbn, 24 tbc
    Metadata:
      encoder         : Lavc57.66.101 libx264
    Side data:
      cpb: bitrate max/min/avg: 0/0/3500000 buffer size: 0 vbv_delay: -1
Stream mapping:
  Stream #0:0 -> #0:0 (rawvideo (native) -> h264 (libx264))
Press [q] to stop, [?] for help
frame=    9 fps=0.0 q=0.0 size=       0kB time=00:00:00.00 bitrate=N/A speed=   0x    frame=   18 fps= 17 q=0.0 size=       0kB time=00:00:00.00 bitrate=N/A speed=   0x    frame=   27 fps= 17 q=0.0 size=       0kB time=00:00:00.00 bitrate=N/A speed=   0x    frame=   36 fps= 17 q=0.0 size=       0kB time=00:00:00.00 bitrate=N/A speed=   0x    frame=   45 fps= 17 q=0.0 size=       0kB time=00:00:00.00 bitrate=N/A speed=   0x    frame=   47 fps=9.5 q=0.0 size=       0kB time=00:00:00.00 bitrate=N/A speed=   0x    frame=   48 fps=5.9 q=0.0 size=       0kB time=00:00:00.00 bitrate=N/A speed=   0x    frame=   49 fps=4.7 q=0.0 size=       0kB time=00:00:00.00 bitrate=N/A speed=   0x    frame=   52 fps=4.8 q=34.0 size=       1kB time=-00:00:00.04 bitrate=N/A speed=N/A    frame=   55 fps=4.8 q=38.0 size=       1kB time=00:00:00.08 bitrate=  69.9kbits/s speed=0.00733x    frame=   57 fps=4.8 q=51.0 size=       1kB time=00:00:00.16 bitrate=  35.0kbits/s speed=0.014x    frame=   64 fps=5.0 q=51.0 size=       1kB time=00:00:00.45 bitrate=  12.8kbits/s speed=0.0357x    frame=   71 fps=5.3 q=52.0 size=       1kB time=00:00:00.75 bitrate=   7.8kbits/s speed=0.0561x    frame=   74 fps=5.3 q=51.0 size=       1kB time=00:00:00.87 bitrate=   6.7kbits/s speed=0.0631x    frame=   79 fps=5.4 q=51.0 size=       1kB time=00:00:01.08 bitrate=   5.4kbits/s speed=0.0737x    frame=   86 fps=5.6 q=51.0 size=       1kB time=00:00:01.37 bitrate=   4.3kbits/s speed=0.09x    frame=   92 fps=5.8 q=50.0 size=       1kB time=00:00:01.62 bitrate=   3.6kbits/s speed=0.103x    frame=   99 fps=6.0 q=50.0 size=       1kB time=00:00:01.91 bitrate=   3.1kbits/s speed=0.117x    frame=  104 fps=6.1 q=49.0 size=       1kB time=00:00:02.12 bitrate=   2.8kbits/s speed=0.126x    frame=  109 fps=6.2 q=49.0 size=       1kB time=00:00:02.33 bitrate=   2.5kbits/s speed=0.134x    frame=  114 fps=6.3 q=49.0 size=       1kB time=00:00:02.54 bitrate=   2.3kbits/s speed=0.141x    frame=  119 fps=6.4 q=49.0 size=       1kB time=00:00:02.75 bitrate=   2.1kbits/s speed=0.148x    frame=  123 fps=6.4 q=49.0 size=       1kB time=00:00:02.91 bitrate=   2.0kbits/s speed=0.153x    frame=  129 fps=6.6 q=49.0 size=       1kB time=00:00:03.16 bitrate=   1.9kbits/s speed=0.161x    frame=  132 fps=6.5 q=49.0 size=       1kB time=00:00:03.29 bitrate=   1.8kbits/s speed=0.162x    frame=  138 fps=6.5 q=49.0 size=       1kB time=00:00:03.54 bitrate=   1.7kbits/s speed=0.168x    frame=  144 fps=6.6 q=49.0 size=       1kB time=00:00:03.79 bitrate=   1.5kbits/s speed=0.175x    frame=  150 fps=6.7 q=49.0 size=    2017kB time=00:00:04.04 bitrate=4086.4kbits/s speed=0.181x    frame=  156 fps=6.8 q=49.0 size=    2017kB time=00:00:04.29 bitrate=3848.4kbits/s speed=0.188x    frame=  163 fps=6.9 q=49.0 size=    2017kB time=00:00:04.58 bitrate=3604.1kbits/s speed=0.195x    frame=  169 fps=7.0 q=48.0 size=    2017kB time=00:00:04.83 bitrate=3417.7kbits/s speed=0.201x    frame=  176 fps=7.1 q=48.0 size=    2017kB time=00:00:05.12 bitrate=3223.0kbits/s speed=0.208x    frame=  182 fps=7.2 q=49.0 size=    2017kB time=00:00:05.37 bitrate=3073.2kbits/s speed=0.212x    frame=  188 fps=7.3 q=49.0 size=    2017kB time=00:00:05.62 bitrate=2936.6kbits/s speed=0.218x    frame=  195 fps=7.4 q=49.0 size=    2017kB time=00:00:05.91 bitrate=2791.7kbits/s speed=0.224x    frame=  202 fps=7.5 q=46.0 size=    2017kB time=00:00:06.20 bitrate=2660.9kbits/s speed=0.23x    frame=  210 fps=7.6 q=48.0 size=    2996kB time=00:00:06.54 bitrate=3751.4kbits/s speed=0.236x    frame=  216 fps=7.7 q=48.0 size=    2996kB time=00:00:06.79 bitrate=3613.3kbits/s speed=0.241x    frame=  220 fps=7.6 q=48.0 size=    2996kB time=00:00:06.95 bitrate=3527.1kbits/s speed=0.241x    frame=  228 fps=7.7 q=48.0 size=    2996kB time=00:00:07.29 bitrate=3365.6kbits/s speed=0.247x    frame=  233 fps=7.8 q=48.0 size=    2996kB time=00:00:07.50 bitrate=3272.3kbits/s speed=0.25x    frame=  238 fps=7.8 q=48.0 size=    3391kB time=00:00:07.70 bitrate=3603.0kbits/s speed=0.253x    frame=  245 fps=7.9 q=47.0 size=    3391kB time=00:00:08.00 bitrate=3471.5kbits/s speed=0.257x    frame=  251 fps=7.9 q=47.0 size=    3391kB time=00:00:08.25 bitrate=3366.3kbits/s speed=0.26x    frame=  259 fps=8.0 q=47.0 size=    3391kB time=00:00:08.58 bitrate=3235.7kbits/s speed=0.265x    frame=  268 fps=8.1 q=47.0 size=    3391kB time=00:00:08.95 bitrate=3100.3kbits/s speed=0.27x    frame=  276 fps=8.2 q=47.0 size=    3391kB time=00:00:09.29 bitrate=2988.8kbits/s speed=0.276x    frame=  284 fps=8.3 q=47.0 size=    3391kB time=00:00:09.62 bitrate=2885.4kbits/s speed=0.281x    frame=  290 fps=8.3 q=46.0 size=    3391kB time=00:00:09.87 bitrate=2812.4kbits/s speed=0.282x    frame=  299 fps=8.4 q=46.0 size=    3391kB time=00:00:10.25 bitrate=2709.5kbits/s speed=0.288x    frame=  307 fps=8.5 q=46.0 size=    3391kB time=00:00:10.58 bitrate=2624.3kbits/s speed=0.293x    frame=  308 fps=8.3 q=46.0 size=    3391kB time=00:00:10.62 bitrate=2613.9kbits/s speed=0.287x    frame=  314 fps=8.3 q=46.0 size=    3391kB time=00:00:10.87 bitrate=2553.8kbits/s speed=0.289x    frame=  318 fps=8.3 q=46.0 size=    4403kB time=00:00:11.04 bitrate=3266.1kbits/s speed=0.29x    frame=  328 fps=8.5 q=45.0 size=    4403kB time=00:00:11.45 bitrate=3147.6kbits/s speed=0.296x    frame=  335 fps=8.5 q=45.0 size=    4403kB time=00:00:11.75 bitrate=3069.3kbits/s speed=0.299x    frame=  343 fps=8.6 q=45.0 size=    4403kB time=00:00:12.08 bitrate=2984.8kbits/s speed=0.304x    frame=  354 fps=8.8 q=44.0 size=    4403kB time=00:00:12.54 bitrate=2875.5kbits/s speed=0.311x    frame=  363 fps=8.9 q=44.0 size=    4403kB time=00:00:12.91 bitrate=2792.1kbits/s speed=0.316x    frame=  373 fps=9.0 q=43.0 size=    4403kB time=00:00:13.33 bitrate=2705.0kbits/s speed=0.322x    frame=  382 fps=9.1 q=43.0 size=    4403kB time=00:00:13.70 bitrate=2631.0kbits/s speed=0.327x    frame=  387 fps=9.1 q=43.0 size=    4403kB time=00:00:13.91 bitrate=2591.5kbits/s speed=0.327x    frame=  397 fps=9.2 q=42.0 size=    4403kB time=00:00:14.33 bitrate=2516.3kbits/s speed=0.333x    frame=  403 fps=9.2 q=42.0 size=    4403kB time=00:00:14.58 bitrate=2473.1kbits/s speed=0.333x    frame=  413 fps=9.3 q=42.0 size=    5330kB time=00:00:15.00 bitrate=2910.7kbits/s speed=0.338x    frame=  419 fps=9.3 q=41.0 size=    5330kB time=00:00:15.25 bitrate=2863.0kbits/s speed=0.34x    frame=  427 fps=9.4 q=41.0 size=    5330kB time=00:00:15.58 bitrate=2801.8kbits/s speed=0.344x    frame=  430 fps=9.4 q=41.0 size=    5330kB time=00:00:15.70 bitrate=2779.6kbits/s speed=0.342x    frame=  435 fps=9.4 q=41.0 size=    5330kB time=00:00:15.91 bitrate=2743.1kbits/s speed=0.343x    frame=  442 fps=9.4 q=41.0 size=    5330kB time=00:00:16.20 bitrate=2693.8kbits/s speed=0.344x    frame=  450 fps=9.4 q=41.0 size=    5330kB time=00:00:16.54 bitrate=2639.4kbits/s speed=0.347x    frame=  457 fps=9.5 q=41.0 size=    5330kB time=00:00:16.83 bitrate=2593.8kbits/s speed=0.348x    frame=  462 fps=9.5 q=41.0 size=    5330kB time=00:00:17.04 bitrate=2562.0kbits/s speed=0.349x    frame=  469 fps=9.5 q=41.0 size=    6191kB time=00:00:17.33 bitrate=2925.7kbits/s speed=0.351x    frame=  475 fps=9.5 q=41.0 size=    6191kB time=00:00:17.58 bitrate=2884.1kbits/s speed=0.352x    frame=  482 fps=9.5 q=41.0 size=    6191kB time=00:00:17.87 bitrate=2837.0kbits/s speed=0.354x    frame=  491 fps=9.6 q=41.0 size=    6191kB time=00:00:18.25 bitrate=2778.7kbits/s speed=0.358x    frame=  500 fps=9.7 q=40.0 size=    6191kB time=00:00:18.62 bitrate=2722.8kbits/s speed=0.361x    frame=  500 fps=9.2 q=-1.0 Lsize=    7335kB time=00:00:20.70 bitrate=2901.7kbits/s speed=0.381x    
video:7331kB audio:0kB subtitle:0kB other streams:0kB global headers:0kB muxing overhead: 0.062211%
bench: utime=155.212s
bench: maxrss=1566788kB
[libx264 @ 0x412d1c0] frame I:8     Avg QP:36.53  size: 51909
[libx264 @ 0x412d1c0] frame P:269   Avg QP:41.93  size: 18307
[libx264 @ 0x412d1c0] frame B:223   Avg QP:40.49  size:  9714
[libx264 @ 0x412d1c0] consecutive B-frames: 37.0%  8.4%  6.6% 48.0%
[libx264 @ 0x412d1c0] mb I  I16..4: 24.5% 74.4%  1.1%
[libx264 @ 0x412d1c0] mb P  I16..4: 11.2% 28.3%  0.1%  P16..4:  9.6%  0.4%  0.2%  0.0%  0.0%    skip:50.2%
[libx264 @ 0x412d1c0] mb B  I16..4:  0.9%  1.3%  0.0%  B16..8: 19.7%  0.5%  0.0%  direct: 0.2%  skip:77.3%  L0:41.2% L1:58.2% BI: 0.6%
[libx264 @ 0x412d1c0] final ratefactor: 38.46
[libx264 @ 0x412d1c0] 8x8 transform intra:71.2% inter:96.1%
[libx264 @ 0x412d1c0] coded y,uvDC,uvAC intra: 6.0% 16.0% 0.2% inter: 1.3% 1.2% 0.0%
[libx264 @ 0x412d1c0] i16 v,h,dc,p: 35% 38%  6% 22%
[libx264 @ 0x412d1c0] i8 v,h,dc,ddl,ddr,vr,hd,vl,hu: 21%  8% 66%  1%  1%  1%  1%  1%  1%
[libx264 @ 0x412d1c0] i4 v,h,dc,ddl,ddr,vr,hd,vl,hu: 21% 26% 13%  6% 10%  6%  9%  4%  5%
[libx264 @ 0x412d1c0] i8c dc,h,v,p: 94%  3%  3%  0%
[libx264 @ 0x412d1c0] Weighted P-Frames: Y:1.1% UV:0.7%
[libx264 @ 0x412d1c0] ref P L0: 67.5%  8.1% 17.9%  6.5%  0.1%
[libx264 @ 0x412d1c0] ref B L0: 89.1%  9.0%  1.9%
[libx264 @ 0x412d1c0] ref B L1: 97.5%  2.5%
[libx264 @ 0x412d1c0] kb/s:2882.33
